<svg width="375" height="814" viewBox="0 0 375 814" fill="none" xmlns="http://www.w3.org/2000/svg">
<g clip-path="url(#clip0_1_977)">
<g clip-path="url(#clip1_1_977)">
<rect width="375" height="258" transform="translate(0 1)" fill="url(#paint0_linear_1_977)"/>
<g opacity="0.04" clip-path="url(#clip2_1_977)">
<rect width="812" height="375" transform="matrix(0 -1 1 0 0 234)" fill="black"/>
<path d="M0 -6.00002L0 234L375 234V-6.00002L0 -6.00002Z" fill="black"/>
<path d="M0.5 -5.5L374.5 -5.5V233.5L0.5 233.5L0.5 -5.5Z" stroke="white" stroke-opacity="0.2"/>
<path d="M102 96.8206L274.043 96.8206" stroke="white" stroke-opacity="0.2" stroke-miterlimit="10"/>
<path d="M188.017 -13L188.017 206.634" stroke="white" stroke-opacity="0.2" stroke-miterlimit="10"/>
</g>
<g opacity="0.5">
<path d="M7.62939e-06 252.969H2.25001" stroke="white" stroke-opacity="0.2" stroke-miterlimit="10"/>
<path d="M6.71404 252.969L370.518 252.969" stroke="white" stroke-opacity="0.2" stroke-miterlimit="10" stroke-dasharray="5.95 5.95"/>
<path d="M372.75 252.969H375" stroke="white" stroke-opacity="0.2" stroke-miterlimit="10"/>
<path d="M25.2127 234V234.773" stroke="white" stroke-opacity="0.2" stroke-miterlimit="10"/>
<path d="M25.2127 236.308L25.2127 425.823" stroke="white" stroke-opacity="0.2" stroke-miterlimit="10" stroke-dasharray="5.95 5.95"/>
<path d="M90.1282 234V234.773" stroke="white" stroke-opacity="0.2" stroke-miterlimit="10"/>
<path d="M90.1282 236.308L90.1282 425.823" stroke="white" stroke-opacity="0.2" stroke-miterlimit="10" stroke-dasharray="5.95 5.95"/>
<path d="M155.043 234V234.773" stroke="white" stroke-opacity="0.2" stroke-miterlimit="10"/>
<path d="M155.043 236.308L155.043 425.823" stroke="white" stroke-opacity="0.2" stroke-miterlimit="10" stroke-dasharray="5.95 5.95"/>
<path d="M219.958 234V234.773" stroke="white" stroke-opacity="0.2" stroke-miterlimit="10"/>
<path d="M219.958 236.308L219.958 425.823" stroke="white" stroke-opacity="0.2" stroke-miterlimit="10" stroke-dasharray="5.95 5.95"/>
<path d="M284.872 234V234.773" stroke="white" stroke-opacity="0.2" stroke-miterlimit="10"/>
<path d="M284.872 236.308V425.823" stroke="white" stroke-opacity="0.2" stroke-miterlimit="10" stroke-dasharray="5.95 5.95"/>
<path d="M349.787 234V234.773" stroke="white" stroke-opacity="0.2" stroke-miterlimit="10"/>
<path d="M349.787 236.308V425.823" stroke="white" stroke-opacity="0.2" stroke-miterlimit="10" stroke-dasharray="5.95 5.95"/>
<g opacity="0.5">
<path d="M25.2127 234V237.249" stroke="white" stroke-opacity="0.2" stroke-miterlimit="10"/>
<path d="M25.2127 243.696L25.2127 1039.89" stroke="white" stroke-opacity="0.2" stroke-miterlimit="10" stroke-dasharray="5.95 5.95"/>
<path d="M90.1282 234V237.249" stroke="white" stroke-opacity="0.2" stroke-miterlimit="10"/>
<path d="M90.1282 243.696L90.1282 1039.89" stroke="white" stroke-opacity="0.2" stroke-miterlimit="10" stroke-dasharray="5.95 5.95"/>
<path d="M155.043 234V237.249" stroke="white" stroke-opacity="0.2" stroke-miterlimit="10"/>
<path d="M155.043 243.696L155.043 1039.89" stroke="white" stroke-opacity="0.2" stroke-miterlimit="10" stroke-dasharray="5.95 5.95"/>
<path d="M219.958 234V237.249" stroke="white" stroke-opacity="0.2" stroke-miterlimit="10"/>
<path d="M219.958 243.696L219.958 1039.89" stroke="white" stroke-opacity="0.2" stroke-miterlimit="10" stroke-dasharray="5.95 5.95"/>
<path d="M284.872 234V237.249" stroke="white" stroke-opacity="0.2" stroke-miterlimit="10"/>
<path d="M284.872 243.696L284.872 1039.89" stroke="white" stroke-opacity="0.2" stroke-miterlimit="10" stroke-dasharray="5.95 5.95"/>
<path d="M349.787 234V237.249" stroke="white" stroke-opacity="0.2" stroke-miterlimit="10"/>
<path d="M349.787 243.696L349.787 1039.89" stroke="white" stroke-opacity="0.2" stroke-miterlimit="10" stroke-dasharray="5.95 5.95"/>
</g>
</g>
</g>
<mask id="mask0_1_977" style="mask-type:luminance" maskUnits="userSpaceOnUse" x="0" y="1" width="375" height="813">
<path d="M0 1.6366L0 814H375L375 1.6366H0Z" fill="white"/>
<path d="M0.5 2.13672H374.5L374.5 813.5H0.5L0.5 2.13672Z" stroke="white"/>
</mask>
<g mask="url(#mask0_1_977)">
<path d="M0.5 2.13672H375.736L375.736 813.5H0.5L0.5 2.13672Z" stroke="white" stroke-opacity="0.2"/>
</g>
<mask id="mask1_1_977" style="mask-type:luminance" maskUnits="userSpaceOnUse" x="0" y="1" width="375" height="813">
<path d="M0 1.6366L0 814H375L375 1.6366H0Z" fill="white"/>
<path d="M0.5 2.13672H374.5L374.5 813.5H0.5L0.5 2.13672Z" stroke="white"/>
</mask>
<g mask="url(#mask1_1_977)">
<path d="M213.865 106.4C208.445 88.1458 209.62 65.5523 218.162 49.9864C223.445 40.3582 231.05 33.9081 238.934 29.2982C255.575 19.5715 274.349 17.2763 291.749 23.6582C309.148 30.0401 325.037 45.2085 335.449 66.3278C344.787 85.2689 349.598 108.257 359.009 127.123C366.346 141.831 376.334 153.727 382.489 169.526C389.76 188.19 390.53 213.275 381.314 230.05C371.254 248.361 351.483 251.715 337.189 240.751C327.692 233.468 320.475 221.163 314.798 207.975C309.122 194.787 304.768 180.511 299.46 167.007C293.748 152.474 287.683 148.254 276.653 148.254C228.782 148.254 219.284 124.656 213.865 106.4Z" stroke="white" stroke-opacity="0.2" stroke-width="2" stroke-miterlimit="10"/>
</g>
<mask id="mask2_1_977" style="mask-type:luminance" maskUnits="userSpaceOnUse" x="0" y="1" width="375" height="813">
<path d="M0 1.6366L0 814H375L375 1.6366H0Z" fill="white"/>
<path d="M0.5 2.13672H374.5L374.5 813.5H0.5L0.5 2.13672Z" stroke="white"/>
</mask>
<g mask="url(#mask2_1_977)">
<path d="M209.968 -34.8298C174.989 -22.9866 149.767 30.2351 153.223 81.8808C156.68 133.527 187.204 178.067 222.716 185.929C242.626 190.338 266.652 186.697 279.011 209.669C284.194 219.303 285.982 231.841 286.748 243.992C289.502 287.617 281.082 330.906 277.96 374.479C270.619 476.931 294.14 583.223 341.261 660.538C362.869 695.992 389.639 726.641 402.973 769.77C413.768 804.69 411.124 854.15 387.307 870.87C370.793 882.463 349.943 872.932 337.073 854.019C324.202 835.106 317.966 808.795 314.299 782.812C311.636 763.948 309.856 743.856 301.795 728.524C293.016 711.827 278.215 703.906 263.8 701.432C238.416 697.075 213.033 706.967 187.604 710.74C162.175 714.513 133.819 710.593 115.722 684.519C92.0505 650.415 95.6602 593.293 107.752 548.273C122.686 492.672 147.529 443.776 164.701 389.539C173.747 360.964 180.222 325.556 167.87 299.692C156.475 275.831 133.837 268.435 113.791 269.866C87.972 271.708 69.1425 275.713 47.2095 278.407C24.5625 281.188 -2.19454 292.575 -17.2508 267.985C-23.8485 257.208 -26.2463 242.486 -28.0411 228.338C-36.0983 164.812 -36.5138 99.2806 -29.2636 35.5523C-25.5301 2.73608 -18.9991 -31.5749 -2.0573 -54.0979C16.8765 -79.2693 44.5327 -84.2529 70.248 -85.6978C106.365 -87.7276 142.604 -85.192 178.415 -78.1277C192.039 -75.4404 206.36 -71.6027 216.745 -58.5865C218.942 -55.8321 221.032 -52.3454 221.206 -48.1504C221.776 -34.3521 205.616 -36.1848 199.01 -26.183" stroke="white" stroke-opacity="0.2" stroke-width="2" stroke-miterlimit="10"/>
</g>
<mask id="mask3_1_977" style="mask-type:luminance" maskUnits="userSpaceOnUse" x="0" y="1" width="375" height="813">
<path d="M0 1.6366L0 814H375L375 1.6366H0Z" fill="white"/>
<path d="M0.5 2.13672H374.5L374.5 813.5H0.5L0.5 2.13672Z" stroke="white"/>
</mask>
<g mask="url(#mask3_1_977)">
<path d="M97.8405 305.112C109.337 305.909 123.105 310.837 126.479 326.729C128.105 334.388 126.728 342.676 124.894 350.236C113.966 395.276 87.9803 428.719 62.484 459.081C36.9878 489.443 10.077 520.405 -4.01623 563.572C-9.11174 579.179 -12.3435 595.887 -16.206 612.214C-18.3525 621.288 -22.8345 632.146 -29.3535 630.327C-31.9005 629.616 -33.9915 626.948 -35.5327 623.934C-39.4702 616.242 -40.4865 606.298 -41.1375 596.778C-42.6982 573.951 -42.8602 550.977 -43.0215 528.04C-43.386 476.027 -43.7512 424.013 -44.1157 372C-44.1772 363.255 -43.1947 352.277 -37.4325 349.578C-32.1375 347.102 -26.7817 352.721 -21.429 351.722C-16.677 350.835 -13.0732 346.443 -8.98874 343.005C1.80002 333.926 13.1933 326.377 24.9863 320.455C48.303 308.746 73.1715 303.403 97.8405 305.112Z" stroke="white" stroke-opacity="0.2" stroke-width="2" stroke-miterlimit="10"/>
</g>
<mask id="mask4_1_977" style="mask-type:luminance" maskUnits="userSpaceOnUse" x="0" y="1" width="375" height="813">
<path d="M0 1.6366L0 814H375L375 1.6366H0Z" fill="white"/>
<path d="M0.5 2.13672H374.5L374.5 813.5H0.5L0.5 2.13672Z" stroke="white"/>
</mask>
<g mask="url(#mask4_1_977)">
<path d="M282.913 784.965C274.305 768.823 260.162 761.175 246.464 756.297C229.254 750.17 211.332 747.183 193.746 750.388C180.611 752.781 167.523 758.832 157.092 770.605C146.661 782.377 139.172 800.392 138.961 819.509C138.622 850.133 156.812 875.86 176.936 885.532C208.238 900.577 243.69 884.866 269.532 855.249C284.69 837.874 297.047 811.47 282.913 784.965Z" stroke="white" stroke-opacity="0.2" stroke-width="2" stroke-miterlimit="10"/>
</g>
<mask id="mask5_1_977" style="mask-type:luminance" maskUnits="userSpaceOnUse" x="0" y="1" width="375" height="813">
<path d="M0 1.6366L0 814H375L375 1.6366H0Z" fill="white"/>
<path d="M0.5 2.13672H374.5L374.5 813.5H0.5L0.5 2.13672Z" stroke="white"/>
</mask>
<g mask="url(#mask5_1_977)">
<path d="M82.662 805.731C75.1538 795.111 72.453 779.394 70.8 764.406C62.8748 692.519 71.5748 619.244 72.3705 546.462C72.4163 542.276 72.405 537.896 71.0625 534.187C67.7423 525.014 58.6298 524.965 51.7635 527.929C36.8415 534.369 23.9753 548.781 14.1263 566.205C4.27727 583.63 -2.76448 604.006 -8.68124 624.812C-24.7342 681.262 -33.0247 742.29 -32.9295 803.315C-32.9115 814.862 -32.5027 826.92 -28.5877 836.989C-21.0757 856.311 -3.75074 861.688 11.535 863.612C48.264 868.236 86.2913 864.114 119.964 842.431C123.322 840.269 126.917 837.5 128.224 832.538C132.274 817.161 114.425 820.838 109.717 820.297C99.9683 819.18 89.883 815.945 82.662 805.731Z" stroke="white" stroke-opacity="0.2" stroke-width="2" stroke-miterlimit="10"/>
</g>
<mask id="mask6_1_977" style="mask-type:luminance" maskUnits="userSpaceOnUse" x="0" y="1" width="375" height="813">
<path d="M0 1.6366L0 814H375L375 1.6366H0Z" fill="white"/>
<path d="M0.5 2.13672H374.5L374.5 813.5H0.5L0.5 2.13672Z" stroke="white"/>
</mask>
<g mask="url(#mask6_1_977)">
<path d="M343.759 521.349C325.387 458.562 317.123 390.364 314.546 322.302C314.015 308.282 313.798 293.646 317.863 280.89C319.3 276.381 321.425 272.001 324.587 270.055C330.482 266.426 336.989 272.527 341.633 278.907C357.056 300.099 369.491 329.652 390.25 336.472C400.637 339.885 411.798 336.872 421.91 341.709C438.002 349.406 449.231 373.549 451.521 397.805C454.409 428.398 459.776 473.163 462.203 514.583C463.893 543.441 463.186 572.649 460.787 601.453C458.825 625.029 455.799 663.069 444.409 681.666C431.864 702.148 419.871 670.663 411.355 659.461C397.43 641.145 384.768 621.545 373.8 599.37C361.799 575.107 351.794 548.807 343.759 521.349Z" stroke="white" stroke-opacity="0.2" stroke-width="2" stroke-miterlimit="10"/>
</g>
<mask id="mask7_1_977" style="mask-type:luminance" maskUnits="userSpaceOnUse" x="0" y="1" width="375" height="813">
<path d="M0 1.6366L0 814H375L375 1.6366H0Z" fill="white"/>
<path d="M0.5 2.13672H374.5L374.5 813.5H0.5L0.5 2.13672Z" stroke="white"/>
</mask>
<g mask="url(#mask7_1_977)">
<path d="M121.66 730.642C127.213 739.505 129.793 752.085 128.48 763.886C127.831 769.72 126.229 775.44 123.448 779.775C120.668 784.109 116.63 786.922 112.545 786.597C106.373 786.107 101.448 778.92 98.2102 771.316C94.8945 763.527 92.667 754.883 90.6982 746.193C87.8197 733.485 85.4295 720.3 85.7602 706.938C85.8217 704.464 86.0025 701.879 86.9422 699.808C87.882 697.737 89.8012 696.396 91.3642 697.414C92.9685 698.459 93.4935 701.283 94.1625 703.634C96.537 711.978 101.278 713.049 106.477 716.27C112.063 719.73 117.536 724.058 121.66 730.642Z" stroke="white" stroke-opacity="0.2" stroke-width="2" stroke-miterlimit="10"/>
</g>
<mask id="mask8_1_977" style="mask-type:luminance" maskUnits="userSpaceOnUse" x="0" y="1" width="375" height="813">
<path d="M0 1.6366L0 814H375L375 1.6366H0Z" fill="white"/>
<path d="M0.5 2.13672H374.5L374.5 813.5H0.5L0.5 2.13672Z" stroke="white"/>
</mask>
<g mask="url(#mask8_1_977)">
<path d="M108.571 482.452C110.246 477.564 110.225 471.536 108.516 466.671C107.868 464.827 106.962 463.11 105.725 462.068C103.793 460.44 101.371 460.692 99.1921 461.425C94.8496 462.885 90.7936 466.084 87.5956 470.573C85.2946 473.803 83.3813 477.897 83.0453 482.506C82.6733 487.613 84.4426 492.923 87.4373 495.689C94.5061 502.219 105.347 491.859 108.571 482.452Z" stroke="white" stroke-opacity="0.2" stroke-width="2" stroke-miterlimit="10"/>
</g>
<mask id="mask9_1_977" style="mask-type:luminance" maskUnits="userSpaceOnUse" x="0" y="1" width="375" height="813">
<path d="M0 1.6366L0 814H375L375 1.6366H0Z" fill="white"/>
<path d="M0.5 2.13672H374.5L374.5 813.5H0.5L0.5 2.13672Z" stroke="white"/>
</mask>
<g mask="url(#mask9_1_977)">
<path d="M368.622 75.9072C363.198 63.1455 359.649 48.8718 354.22 36.1144C349.468 24.9461 343.297 15.0428 336.106 7.0448C331.705 2.15004 326.368 -3.60258 326.775 -11.6027C327.072 -17.4442 330.527 -21.9663 334.177 -24.5225C342.514 -30.3629 352.38 -29.0923 361.414 -26.1083C370.17 -23.2162 379.102 -18.4471 384.974 -8.6316C389.263 -1.46331 391.519 7.74239 393.304 16.8593C398.197 41.8638 400.219 68.0349 399.265 93.9839C398.245 121.652 372.273 84.4977 368.622 75.9072Z" stroke="white" stroke-opacity="0.2" stroke-width="2" stroke-miterlimit="10"/>
</g>
<mask id="mask10_1_977" style="mask-type:luminance" maskUnits="userSpaceOnUse" x="0" y="1" width="375" height="813">
<path d="M0 1.6366L0 814H375L375 1.6366H0Z" fill="white"/>
<path d="M0.5 2.13672H374.5L374.5 813.5H0.5L0.5 2.13672Z" stroke="white"/>
</mask>
<g mask="url(#mask10_1_977)">
<path d="M278.395 140.602C268.838 138.821 259.076 138.853 249.745 135.386C241.385 132.28 233.413 126.227 227.625 116.977C221.837 107.727 218.413 95.1147 219.286 82.7116C220.299 68.3143 226.988 55.5667 235.528 47.9955C244.067 40.4253 254.261 37.5333 264.277 37.1412C274.993 36.721 285.691 39.0032 296.136 42.4877C302.67 44.6681 309.263 47.4084 314.79 52.8935C325.415 63.438 330.34 82.0584 335.598 99.0585C340.559 115.097 346.389 130.77 354.392 143.997C361.263 155.353 369.678 164.817 375.512 177.324C381.345 189.831 384.13 207.063 378.581 219.837C375.344 227.291 369.701 232.095 363.786 234.202C355.473 237.163 346.359 235.103 339.069 228.616C332.945 223.166 328.263 214.949 324.018 206.562C318.107 194.884 312.803 182.565 308.164 169.744C305.675 162.868 303.145 155.054 298.755 149.999C293.303 143.723 285.1 141.852 278.395 140.602Z" stroke="white" stroke-opacity="0.2" stroke-miterlimit="10"/>
</g>
<mask id="mask11_1_977" style="mask-type:luminance" maskUnits="userSpaceOnUse" x="0" y="1" width="375" height="813">
<path d="M0 1.6366L0 814H375L375 1.6366H0Z" fill="white"/>
<path d="M0.5 2.13672H374.5L374.5 813.5H0.5L0.5 2.13672Z" stroke="white"/>
</mask>
<g mask="url(#mask11_1_977)">
<path d="M351.171 520.23C340.154 482.953 333.556 443.297 327.821 403.621C324.591 381.28 321.615 358.812 320.228 336.077C319.606 325.89 319.328 315.389 321.54 305.674C322.38 301.985 324.086 297.938 326.773 297.79C328.649 297.686 330.271 299.576 331.625 301.454C338.913 311.563 344.333 324.576 352.694 332.772C363.203 343.075 377.06 344.454 387.317 355.275C395.075 363.459 399.902 376.144 403.806 388.821C417.455 433.138 422.762 482.166 422.596 530.669C422.508 556.375 420.819 582.65 413.467 606.06C412.133 610.308 410.51 614.617 407.821 617.2C402.896 621.93 398.663 617.663 395.036 612.904C390.38 606.796 385.996 600.276 381.9 593.381C373.683 579.548 366.626 564.324 360.582 548.339C357.128 539.201 354.001 529.806 351.171 520.23Z" stroke="white" stroke-opacity="0.2" stroke-miterlimit="10"/>
</g>
<mask id="mask12_1_977" style="mask-type:luminance" maskUnits="userSpaceOnUse" x="0" y="1" width="375" height="813">
<path d="M0 1.6366L0 814H375L375 1.6366H0Z" fill="white"/>
<path d="M0.5 2.13672H374.5L374.5 813.5H0.5L0.5 2.13672Z" stroke="white"/>
</mask>
<g mask="url(#mask12_1_977)">
<path d="M372.394 57.7136C369.189 48.8231 367.07 39.1462 363.53 30.5265C360.076 22.118 355.295 14.8544 349.653 9.44947C345.425 5.3974 340.5 2.05912 337.996 -4.31522C337.493 -5.59551 337.1 -7.14658 337.478 -8.51243C337.915 -10.0906 339.177 -10.7752 340.31 -11.2301C349.109 -14.7655 358.526 -15.0438 367.418 -12.0305C371.936 -10.5 376.496 -7.96326 379.616 -3.00135C381.977 0.753938 383.321 5.58804 384.509 10.3604C388.838 27.7385 393.317 48.2685 393.376 66.9182C393.401 74.94 389.997 80.8443 384.382 77.1432C379.046 73.624 374.998 64.9382 372.394 57.7136Z" stroke="white" stroke-opacity="0.2" stroke-miterlimit="10"/>
</g>
<mask id="mask13_1_977" style="mask-type:luminance" maskUnits="userSpaceOnUse" x="0" y="1" width="375" height="813">
<path d="M0 1.6366L0 814H375L375 1.6366H0Z" fill="white"/>
<path d="M0.5 2.13672H374.5L374.5 813.5H0.5L0.5 2.13672Z" stroke="white"/>
</mask>
<g mask="url(#mask13_1_977)">
<path d="M-11.9985 256.766C-12.735 271.685 -13.923 272.096 -3.68625 274.36C17.5687 279.061 87.8258 261.641 125.761 257.767C146.93 255.606 170.561 256.308 184.82 279.008C195.828 296.532 196.789 323.466 191.844 346.022C186.899 368.579 180.292 389.411 170.762 414.294C152.081 463.067 128.818 509.428 116.173 556.854C107.939 587.737 102.446 623.504 112.452 653.276C124.363 688.712 154.961 702.699 182.219 701.323C209.477 699.946 235.955 687.114 263.195 685.109C269.835 684.621 276.632 684.81 282.92 687.928C297.808 695.307 307.883 717.107 312.209 738.963C316.534 760.818 318.166 783.755 323.825 804.965C329.486 826.176 339.926 846.759 355.636 848.172C371.84 849.63 386.408 829.545 389.881 806.641C393.353 783.737 387.661 759.613 378.506 740.25C369.35 720.888 356.958 705.298 345.188 689.149C327.004 664.201 309.876 637.165 297.274 605.848C262.093 518.419 257.315 409.646 266.57 309.705C268.796 285.663 270.667 254.913 260.57 235.529C249.149 213.605 224.377 210.886 206.432 201.883C185.623 191.444 164.904 175.479 153.161 148.563C136.874 111.234 141.663 62.6743 150.238 20.3264C152.398 9.65842 154.444 -3.24841 149.242 -11.4403C146.028 -16.5008 140.99 -17.9836 136.298 -19.1004C97.3275 -28.3743 57.6135 -31.1211 18.2077 -27.2683C9.675 -26.4343 0.439496 -24.841 -5.71575 -16.2668C-11.0835 -8.78981 -12.9225 2.40344 -14.2898 12.9912C-20.9295 64.4084 -22.218 117.26 -18.0975 169.224C-15.3345 204.075 -10.17 239.539 -15.2648 273.837" stroke="white" stroke-opacity="0.2" stroke-miterlimit="10"/>
</g>
<mask id="mask14_1_977" style="mask-type:luminance" maskUnits="userSpaceOnUse" x="0" y="1" width="375" height="813">
<path d="M0 1.6366L0 814H375L375 1.6366H0Z" fill="white"/>
<path d="M0.5 2.13672H374.5L374.5 813.5H0.5L0.5 2.13672Z" stroke="white"/>
</mask>
<g mask="url(#mask14_1_977)">
<path d="M106.139 356.127C109.362 349.843 112.622 342.277 111.235 334.718C110.564 331.06 108.853 327.96 106.882 325.467C100.647 317.584 91.884 315.188 83.6003 315.525C75.927 315.838 68.3708 318.211 60.9023 320.772C43.0545 326.892 25.2645 334.21 8.87702 346.117C0.596264 352.134 -7.39499 359.43 -13.5765 369.405C-27.9615 392.62 -30.4035 426.28 -30.3765 457.433C-30.3495 489.04 -28.5 520.642 -24.852 551.806C-24.4455 555.279 -23.8695 559.098 -21.8925 561.159C-17.0137 566.244 -4.07699 532.281 -1.02598 526.583C6.89252 511.79 15.4605 497.745 24.3023 484.094C41.8253 457.037 60.4733 431.553 77.949 404.43C87.8843 389.009 97.4543 373.064 106.139 356.127Z" stroke="white" stroke-opacity="0.2" stroke-miterlimit="10"/>
</g>
<mask id="mask15_1_977" style="mask-type:luminance" maskUnits="userSpaceOnUse" x="0" y="1" width="375" height="813">
<path d="M0 1.6366L0 814H375L375 1.6366H0Z" fill="white"/>
<path d="M0.5 2.13672H374.5L374.5 813.5H0.5L0.5 2.13672Z" stroke="white"/>
</mask>
<g mask="url(#mask15_1_977)">
<path d="M273.755 796.946C268.463 787.046 260.051 781.775 251.765 778.136C226.876 767.205 199.662 767.61 174.934 779.28C165.766 783.607 156.165 790.528 152.383 803.341C150.917 808.307 150.484 814.096 151.879 819.106C153.328 824.31 156.542 828.08 159.941 830.795C166.672 836.172 174.395 838.233 181.963 840.217C201.389 845.307 220.991 850.419 240.725 849.499C258.047 848.691 290.963 829.136 273.755 796.946Z" stroke="white" stroke-opacity="0.2" stroke-miterlimit="10"/>
</g>
<mask id="mask16_1_977" style="mask-type:luminance" maskUnits="userSpaceOnUse" x="0" y="1" width="375" height="813">
<path d="M0 1.6366L0 814H375L375 1.6366H0Z" fill="white"/>
<path d="M0.5 2.13672H374.5L374.5 813.5H0.5L0.5 2.13672Z" stroke="white"/>
</mask>
<g mask="url(#mask16_1_977)">
<path d="M72.2085 811.565C67.5713 801.766 65.19 790.138 63.27 778.598C52.1333 711.664 54.321 641.581 60.1365 573.254C60.6015 567.795 61.0845 562.203 60.2333 556.841C59.3813 551.48 56.8973 546.304 53.2343 544.796C50.1105 543.509 46.7618 545.065 43.8675 547.195C37.9373 551.559 32.9985 558.291 28.5908 565.491C10.2698 595.417 0.163514 633.88 -7.66124 672.193C-16.758 716.731 -23.2657 764.552 -14.577 809.258C-13.3732 815.45 -11.7765 821.779 -8.54473 826.204C-5.11874 830.895 -0.341236 832.8 4.25101 834.386C31.254 843.71 59.1503 847.623 86.8905 845.979C92.916 845.621 104.221 837.775 95.5313 830.505C92.46 827.935 87.5865 828.815 84.1988 826.721C79.2833 823.682 75.192 817.869 72.2085 811.565Z" stroke="white" stroke-opacity="0.2" stroke-miterlimit="10"/>
</g>
<mask id="mask17_1_977" style="mask-type:luminance" maskUnits="userSpaceOnUse" x="0" y="1" width="375" height="813">
<path d="M0 1.6366L0 814H375L375 1.6366H0Z" fill="white"/>
<path d="M0.5 2.13672H374.5L374.5 813.5H0.5L0.5 2.13672Z" stroke="white"/>
</mask>
<g mask="url(#mask17_1_977)">
<path d="M119.18 752.745C120.541 759.264 120.869 766.884 118.075 772.368C116.998 774.483 115.38 776.211 113.562 776.301C110.68 776.444 108.512 772.68 106.934 769.196C100.317 754.585 95.4847 738.293 92.7262 721.295C92.6077 720.563 92.4922 719.793 92.6317 719.067C93.6952 713.531 106.159 726.097 107.823 728.108C113.131 734.526 117.178 743.159 119.18 752.745Z" stroke="white" stroke-opacity="0.2" stroke-miterlimit="10"/>
</g>
<mask id="mask18_1_977" style="mask-type:luminance" maskUnits="userSpaceOnUse" x="0" y="1" width="375" height="813">
<path d="M0 1.6366L0 814H375L375 1.6366H0Z" fill="white"/>
<path d="M0.5 2.13672H374.5L374.5 813.5H0.5L0.5 2.13672Z" stroke="white"/>
</mask>
<g mask="url(#mask18_1_977)">
<path d="M104.128 479.073C104.778 477.716 105.112 475.942 104.73 474.387C104.442 473.21 103.783 472.292 103.055 471.62C99.7724 468.591 95.1419 470.314 92.4314 474.355C90.0194 477.951 88.2412 488.515 93.5654 488.883C96.5947 489.094 102.514 482.442 104.128 479.073Z" stroke="white" stroke-opacity="0.2" stroke-miterlimit="10"/>
</g>
<mask id="mask19_1_977" style="mask-type:luminance" maskUnits="userSpaceOnUse" x="0" y="1" width="375" height="813">
<path d="M0 1.6366L0 814H375L375 1.6366H0Z" fill="white"/>
<path d="M0.5 2.13672H374.5L374.5 813.5H0.5L0.5 2.13672Z" stroke="white"/>
</mask>
<g mask="url(#mask19_1_977)">
<path d="M373.475 36.8382C371.714 31.0921 370.782 24.8433 368.78 19.264C366.203 12.0838 361.953 6.36152 357.194 2.09715C355.276 0.37819 352.934 -2.39034 353.834 -5.38092C354.269 -6.82692 355.343 -7.60895 356.356 -8.19926C361.382 -11.1281 366.928 -12.1777 372.307 -11.2212C374.891 -10.762 377.516 -9.79258 379.587 -7.51363C382.556 -4.24793 383.938 1.15372 384.987 6.32576C386.468 13.624 387.584 21.1541 387.527 28.7589C387.491 33.6418 386.891 46.7945 383.303 49.3983C379.373 52.2503 374.664 40.718 373.475 36.8382Z" stroke="white" stroke-opacity="0.2" stroke-miterlimit="10"/>
</g>
<mask id="mask20_1_977" style="mask-type:luminance" maskUnits="userSpaceOnUse" x="0" y="1" width="375" height="813">
<path d="M0 1.6366L0 814H375L375 1.6366H0Z" fill="white"/>
<path d="M0.5 2.13672H374.5L374.5 813.5H0.5L0.5 2.13672Z" stroke="white"/>
</mask>
<g mask="url(#mask20_1_977)">
<path d="M304.568 142.924C308.202 148.131 310.757 154.665 313.252 161.121C317.332 171.678 321.382 182.281 326.049 192.319C330.641 202.194 336.082 211.804 343.499 216.977C348.558 220.506 354.367 221.752 359.917 220.5C362.21 219.982 364.514 219.01 366.362 216.982C369.662 213.36 370.962 206.831 370.477 200.886C369.993 194.942 367.98 189.483 365.682 184.503C356.474 164.549 342.368 150.114 333.169 130.152C324.845 112.092 320.687 89.844 309.942 74.682C301.382 62.6027 289.562 56.4949 277.789 53.3819C266.615 50.4281 254.528 50.0555 244.489 57.7329C234.449 65.4103 227.443 83.0949 231.136 98.6089C235.064 115.11 247.787 121.959 258.577 125.291C266.696 127.798 274.999 128.585 283.196 130.372C291.158 132.108 298.682 134.424 304.568 142.924Z" stroke="white" stroke-opacity="0.2" stroke-miterlimit="10"/>
</g>
<mask id="mask21_1_977" style="mask-type:luminance" maskUnits="userSpaceOnUse" x="0" y="1" width="375" height="813">
<path d="M0 1.6366L0 814H375L375 1.6366H0Z" fill="white"/>
<path d="M0.5 2.13672H374.5L374.5 813.5H0.5L0.5 2.13672Z" stroke="white"/>
</mask>
<g mask="url(#mask21_1_977)">
<path d="M340.752 427.55C335.936 404.001 331.843 380.001 330.544 355.518C330.304 351.006 330.167 346.381 331.054 342.041C331.375 340.468 332.029 338.721 333.159 338.554C333.813 338.458 334.435 338.941 334.996 339.436C341.158 344.883 345.616 353.625 351.602 359.466C362.329 369.936 377.146 370.372 386.427 383.407C391.07 389.929 393.713 398.877 395.436 407.894C398.669 424.819 399.039 442.558 399.901 460.071C401.464 491.836 404.708 523.763 402.067 555.38C401.275 564.862 396.166 577.537 388.658 569.669C382.683 563.408 377.998 549.478 374.139 540.57C364.503 518.325 356.842 494.394 350.473 469.849C346.862 455.935 343.666 441.8 340.752 427.55Z" stroke="white" stroke-opacity="0.2" stroke-miterlimit="10"/>
</g>
<mask id="mask22_1_977" style="mask-type:luminance" maskUnits="userSpaceOnUse" x="0" y="1" width="375" height="813">
<path d="M0 1.6366L0 814H375L375 1.6366H0Z" fill="white"/>
<path d="M0.5 2.13672H374.5L374.5 813.5H0.5L0.5 2.13672Z" stroke="white"/>
</mask>
<g mask="url(#mask22_1_977)">
<path d="M-3.78227 267.861C3.51748 269.368 11.211 268.772 29.154 266.34C66.7987 261.239 104.203 249.582 141.997 247.937C164.739 246.947 191.465 250.83 203.402 278.804C213.323 302.054 208.485 332.266 201.538 357.667C188.74 404.458 169.936 447.251 150.895 489.38C139.297 515.038 127.399 541.089 121.57 570.552C115.741 600.015 116.863 634.027 129.73 658.391C142.767 683.078 158.071 687.143 179.57 687.249C201.068 687.354 225.196 681.123 249.272 675.541C260.339 672.975 272.863 671.624 283.676 675.888C298.158 681.6 308.96 699.715 315.066 719.52C321.173 739.326 323.402 761.072 326.519 782.28C328.07 792.834 329.966 803.665 334.534 812.201C344.216 830.292 365.674 831.191 376.065 813.942C385.909 797.601 384.491 771.887 377.099 753.041C369.706 734.196 357.578 720.414 346.205 706.296C314.764 667.269 295.1 632.216 276.08 579.015C257.06 525.814 250.229 465.999 250.229 406.124C250.229 349.543 258.999 315.394 255.38 275.473C253.505 254.781 244.532 239.986 230.62 234.278C211.673 226.503 188.286 217.869 171.527 201.074C120.201 149.636 128.818 94.8786 138.756 27.0083C139.928 19.0049 138.586 9.74068 134.644 3.86784C131.889 -0.237306 127.856 -1.86635 124.008 -3.20729C87.5857 -15.8975 49.3342 -17.519 12.4597 -7.93417C6.16498 -6.29753 -0.486017 -4.03589 -4.93727 2.59733C-10.041 10.2032 -11.0123 21.6261 -11.595 32.1847C-13.5848 68.2644 -14.1563 104.507 -13.314 140.681C-12.501 175.599 -7.13852 211.082 -7.16477 245.781C-7.17677 260.432 -12.495 266.064 -3.78227 267.861Z" stroke="white" stroke-opacity="0.2" stroke-miterlimit="10"/>
</g>
<mask id="mask23_1_977" style="mask-type:luminance" maskUnits="userSpaceOnUse" x="0" y="1" width="375" height="813">
<path d="M0 1.6366L0 814H375L375 1.6366H0Z" fill="white"/>
<path d="M0.5 2.13672H374.5L374.5 813.5H0.5L0.5 2.13672Z" stroke="white"/>
</mask>
<g mask="url(#mask23_1_977)">
<path d="M81.2423 376.008C86.7203 367.934 92.3055 359.655 95.6183 349.413C96.5258 346.607 97.263 343.447 96.7103 340.454C96.2588 338.006 94.998 336.029 93.6045 334.49C86.8995 327.082 77.5065 328.305 69.1943 330.434C47.316 336.037 25.5983 345.69 7.0515 363.364C0.549747 369.559 -5.62275 376.866 -9.84825 386.318C-15.8085 399.649 -17.391 416.004 -18.3105 431.818C-19.3125 449.052 -19.7003 466.359 -19.4723 483.651C-19.3598 492.186 -19.0973 500.721 -18.528 509.217C-17.6063 522.982 -10.2885 526.317 -5.27475 515.019C0.152997 502.788 7.04925 491.748 13.5667 480.698C27.3345 457.355 41.7908 434.881 56.4915 412.763C64.6868 400.434 72.96 388.215 81.2423 376.008Z" stroke="white" stroke-opacity="0.2" stroke-miterlimit="10"/>
</g>
<mask id="mask24_1_977" style="mask-type:luminance" maskUnits="userSpaceOnUse" x="0" y="1" width="375" height="813">
<path d="M0 1.6366L0 814H375L375 1.6366H0Z" fill="white"/>
<path d="M0.5 2.13672H374.5L374.5 813.5H0.5L0.5 2.13672Z" stroke="white"/>
</mask>
<g mask="url(#mask24_1_977)">
<path d="M10.8053 618.256C17.1225 598.872 25.4948 580.58 36.759 566.64C38.2635 564.778 39.8903 562.944 41.8238 562.319C43.7573 561.694 46.0725 562.634 46.9785 565.179C47.676 567.136 47.4053 569.488 47.1173 571.65C45.894 580.84 44.6715 590.028 43.4483 599.218C40.356 622.449 37.254 645.813 36.8903 669.464C36.1103 720.197 47.8883 769.333 58.7093 817.611C59.1503 819.578 59.5935 821.674 59.2403 823.678C58.4708 828.04 54.6593 829.302 51.549 829.601C39.258 830.779 26.8635 829.688 14.763 826.364C10.821 825.281 6.83703 823.922 3.38703 820.961C-1.53672 816.739 -4.95597 809.591 -7.32897 802.064C-13.083 783.806 -13.383 762.886 -11.625 742.986C-7.88547 700.657 -1.83522 657.043 10.8053 618.256Z" stroke="white" stroke-opacity="0.2" stroke-miterlimit="10"/>
</g>
<mask id="mask25_1_977" style="mask-type:luminance" maskUnits="userSpaceOnUse" x="0" y="1" width="375" height="813">
<path d="M0 1.6366L0 814H375L375 1.6366H0Z" fill="white"/>
<path d="M0.5 2.13672H374.5L374.5 813.5H0.5L0.5 2.13672Z" stroke="white"/>
</mask>
<g mask="url(#mask25_1_977)">
<path d="M161.168 807.067C164.818 800.541 170.67 797.595 176.287 795.453C201.795 785.726 229.164 786.402 254.427 797.383C257.702 798.807 261.05 800.49 263.551 803.857C265.001 805.81 266.144 808.424 266.227 811.286C266.4 817.306 262.157 821.421 258.349 823.884C241.08 835.052 221.831 838.341 202.909 838.409C194.228 838.44 145.974 834.236 161.168 807.067Z" stroke="white" stroke-opacity="0.2" stroke-miterlimit="10"/>
</g>
<mask id="mask26_1_977" style="mask-type:luminance" maskUnits="userSpaceOnUse" x="0" y="1" width="375" height="813">
<path d="M0 1.6366L0 814H375L375 1.6366H0Z" fill="white"/>
<path d="M0.5 2.13672H374.5L374.5 813.5H0.5L0.5 2.13672Z" stroke="white"/>
</mask>
<g mask="url(#mask26_1_977)">
<path d="M109.28 759.847C109.661 760.401 110.067 760.952 110.567 761.254C111.066 761.556 111.684 761.568 112.113 761.091C112.657 760.488 112.73 759.36 112.719 758.37C112.639 751.225 110.409 744.183 106.719 739.422C106.128 738.659 105.329 737.91 104.597 738.348C103.991 738.711 103.727 739.729 103.588 740.656C102.419 748.408 105.71 754.666 109.28 759.847Z" stroke="white" stroke-opacity="0.2" stroke-miterlimit="10"/>
</g>
<mask id="mask27_1_977" style="mask-type:luminance" maskUnits="userSpaceOnUse" x="0" y="1" width="375" height="813">
<path d="M0 1.6366L0 814H375L375 1.6366H0Z" fill="white"/>
<path d="M0.5 2.13672H374.5L374.5 813.5H0.5L0.5 2.13672Z" stroke="white"/>
</mask>
<g mask="url(#mask27_1_977)">
<path d="M255.204 108.695C270.552 114.861 287.891 112.4 301.361 124.682C306.286 129.171 310.345 135.38 314.03 141.893C322.85 157.478 329.811 175.108 338.597 190.733C340.562 194.227 342.653 197.663 345.26 200.128C346.991 201.764 349.326 202.912 351.062 201.288C352.619 199.833 352.999 196.722 352.691 194.081C352.095 188.971 349.601 184.808 347.147 181.027C337.085 165.524 325.84 151.232 318.28 133.002C311.981 117.814 308.165 99.8037 298.832 88.3277C289.702 77.103 276.979 74.3518 264.989 74.2077C259.615 74.1428 253.927 74.6486 249.461 78.9671C245.45 82.8459 243.325 90.1723 244.466 97.0005C245.619 103.893 250.856 106.949 255.204 108.695Z" stroke="white" stroke-opacity="0.2" stroke-miterlimit="10"/>
</g>
<mask id="mask28_1_977" style="mask-type:luminance" maskUnits="userSpaceOnUse" x="0" y="1" width="375" height="813">
<path d="M0 1.6366L0 814H375L375 1.6366H0Z" fill="white"/>
<path d="M0.5 2.13672H374.5L374.5 813.5H0.5L0.5 2.13672Z" stroke="white"/>
</mask>
<g mask="url(#mask28_1_977)">
<path d="M377.713 394.135C373.212 388.298 367.659 384.47 362.147 380.868C356.636 377.267 351.016 373.757 346.233 368.406C345.254 367.31 344.277 366.113 343.089 365.607C341.9 365.101 340.418 365.506 339.786 367.046C339.433 367.907 339.402 368.959 339.416 369.959C339.501 376.183 340.953 382.177 342.381 388.051C348.059 411.4 353.615 434.812 359.051 458.281C363.006 475.36 366.921 492.554 372.653 508.549C374.397 513.416 376.343 518.229 379.076 522.029C379.759 522.978 380.549 523.897 381.49 524.045C382.81 524.251 384.042 522.812 384.602 521.073C385.16 519.333 385.193 517.349 385.202 515.432C385.359 485.78 382.679 456.007 385.076 426.557C386.113 413.821 384.614 403.085 377.713 394.135Z" stroke="white" stroke-opacity="0.2" stroke-miterlimit="10"/>
</g>
<mask id="mask29_1_977" style="mask-type:luminance" maskUnits="userSpaceOnUse" x="0" y="1" width="375" height="813">
<path d="M0 1.6366L0 814H375L375 1.6366H0Z" fill="white"/>
<path d="M0.5 2.13672H374.5L374.5 813.5H0.5L0.5 2.13672Z" stroke="white"/>
</mask>
<g mask="url(#mask29_1_977)">
<path d="M32.4008 253.297C46.23 250.491 60.0488 247.574 73.8555 244.547C104.183 237.899 135.213 230.732 165.32 239.219C175.074 241.97 184.607 246.341 194.45 248.336C195.972 248.645 197.731 248.791 198.827 247.234C201.077 244.039 198.031 238.925 195.248 236.78C180.286 225.252 163.37 219.273 149.141 205.947C132.104 189.989 119.914 163.617 116.245 134.771C111.677 98.8604 119.85 62.396 121.571 25.9686C122.004 16.7986 121.91 6.97446 118.439 -0.729991C115.216 -7.88096 109.613 -11.9828 104.069 -14.9355C91.5338 -21.6142 78.1148 -24.0426 64.7873 -25.4258C50.7848 -26.8794 36.6848 -27.2293 22.7325 -24.985C14.67 -23.6885 6.35927 -21.3369 -0.167984 -14.3799C-10.7947 -3.05334 -14.187 17.4637 -15.996 36.3571C-20.5612 84.0266 -19.7947 132.385 -19.0192 180.495C-18.7987 194.187 -18.5775 207.881 -18.357 221.573C-18.2287 229.52 -20.3355 245.521 -15.3435 250.996C-10.3027 256.525 0.281265 256.395 6.21602 256.534C14.9895 256.738 23.7315 255.057 32.4008 253.297Z" stroke="white" stroke-opacity="0.2" stroke-miterlimit="10"/>
</g>
<mask id="mask30_1_977" style="mask-type:luminance" maskUnits="userSpaceOnUse" x="0" y="1" width="375" height="813">
<path d="M0 1.6366L0 814H375L375 1.6366H0Z" fill="white"/>
<path d="M0.5 2.13672H374.5L374.5 813.5H0.5L0.5 2.13672Z" stroke="white"/>
</mask>
<g mask="url(#mask30_1_977)">
<path d="M245.391 280.791C247.221 292.048 246.781 303.794 246.101 315.315C242.358 378.682 231.691 443.013 241.467 505.022C248.735 551.122 266.758 591.924 284.308 631.836C286.71 637.297 289.073 644.686 286.258 649.72C284.74 652.435 282.196 653.359 279.833 654.098C261.578 659.806 243.106 664.065 224.528 666.85C207.679 669.376 190.516 670.669 173.918 665.784C162.556 662.44 151.132 655.726 143.729 642.837C135.322 628.202 133.37 607.519 135.747 588.815C138.124 570.111 144.344 552.934 150.88 536.425C177.289 469.712 210.953 405.612 218.961 329.642C221.183 308.559 220.972 285.293 212.244 268.092C210.772 265.191 209.054 262.448 208.215 259.063C207.376 255.678 207.69 251.342 209.721 249.263C210.887 248.07 212.387 247.827 213.817 247.759C229.135 247.032 241.843 258.971 245.391 280.791Z" stroke="white" stroke-opacity="0.2" stroke-miterlimit="10"/>
</g>
<mask id="mask31_1_977" style="mask-type:luminance" maskUnits="userSpaceOnUse" x="0" y="1" width="375" height="813">
<path d="M0 1.6366L0 814H375L375 1.6366H0Z" fill="white"/>
<path d="M0.5 2.13672H374.5L374.5 813.5H0.5L0.5 2.13672Z" stroke="white"/>
</mask>
<g mask="url(#mask31_1_977)">
<path d="M358.337 790.418C363.982 782.613 364.829 769.516 362.174 758.903C359.518 748.291 353.973 739.74 348.144 732.225C343.519 726.262 337.955 720.426 331.776 721.166C330.604 721.306 329.306 721.83 328.739 723.318C328.38 724.262 328.394 725.4 328.441 726.475C328.829 735.372 330.781 743.954 332.789 752.384C335.608 764.22 338.567 775.988 341.666 787.679C344.541 798.532 352.818 798.049 358.337 790.418Z" stroke="white" stroke-opacity="0.2" stroke-miterlimit="10"/>
</g>
<mask id="mask32_1_977" style="mask-type:luminance" maskUnits="userSpaceOnUse" x="0" y="1" width="375" height="813">
<path d="M0 1.6366L0 814H375L375 1.6366H0Z" fill="white"/>
<path d="M0.5 2.13672H374.5L374.5 813.5H0.5L0.5 2.13672Z" stroke="white"/>
</mask>
<g mask="url(#mask32_1_977)">
<path d="M184.451 811.53C201.767 806.026 219.816 805.377 237.299 809.633C239.639 810.203 242.072 810.924 243.926 813.063C245.78 815.202 246.827 819.196 245.644 822.167C244.915 823.998 243.539 825.053 242.224 825.976C219.735 841.764 192.495 846.453 169.701 831.607C168.743 830.983 167.677 830.109 167.509 828.612C167.227 826.097 171.188 819.512 172.507 817.912C175.604 814.157 180.618 812.749 184.451 811.53Z" stroke="white" stroke-opacity="0.2" stroke-miterlimit="10"/>
</g>
<mask id="mask33_1_977" style="mask-type:luminance" maskUnits="userSpaceOnUse" x="0" y="1" width="375" height="813">
<path d="M0 1.6366L0 814H375L375 1.6366H0Z" fill="white"/>
<path d="M0.5 2.13672H374.5L374.5 813.5H0.5L0.5 2.13672Z" stroke="white"/>
</mask>
<g mask="url(#mask33_1_977)">
<path d="M47.1578 822.473C49.0425 817.256 47.49 810.946 45.9855 805.477C32.1435 755.131 23.7293 700.382 28.7385 646.697C29.736 636.006 36.4628 602.716 32.7608 597.738C28.134 591.517 22.1648 607.141 17.9108 621.181C14.4458 632.615 10.9095 644.902 8.49601 656.719C5.75101 670.161 3.312 683.734 1.263 697.433C-2.79225 724.551 -5.22825 752.097 -6.42375 779.774C-7.0005 793.125 -6.73575 807.746 -0.881996 818.112C3.80775 826.416 11.2148 830.348 18.3893 833.085C26.6018 836.219 42.3653 835.741 47.1578 822.473Z" stroke="white" stroke-opacity="0.2" stroke-miterlimit="10"/>
</g>
<mask id="mask34_1_977" style="mask-type:luminance" maskUnits="userSpaceOnUse" x="0" y="1" width="375" height="813">
<path d="M0 1.6366L0 814H375L375 1.6366H0Z" fill="white"/>
<path d="M0.5 2.13672H374.5L374.5 813.5H0.5L0.5 2.13672Z" stroke="white"/>
</mask>
<g mask="url(#mask34_1_977)">
<path d="M72.2385 360.855C74.0107 357.901 75.8002 353.446 74.049 350.467C73.3477 349.273 72.2505 348.75 71.1952 348.391C62.742 345.521 53.985 349.843 45.906 354.443C27.5122 364.916 9.07948 377.707 -4.13777 398.942C-18.0023 421.218 -25.0005 452.097 -22.9388 481.901C-22.671 485.776 -22.2195 489.778 -20.7075 493.005C-19.1963 496.231 -16.3523 498.457 -13.7708 497.33C-8.21852 494.907 -3.14027 480.42 0.250479 474.284C5.60173 464.6 11.2215 455.232 16.9815 446.053C28.533 427.642 40.6612 410.016 52.5112 392.012C59.226 381.811 65.8567 371.493 72.2385 360.855Z" stroke="white" stroke-opacity="0.2" stroke-miterlimit="10"/>
</g>
<mask id="mask35_1_977" style="mask-type:luminance" maskUnits="userSpaceOnUse" x="0" y="1" width="375" height="813">
<path d="M0 1.6366L0 814H375L375 1.6366H0Z" fill="white"/>
<path d="M0.5 2.13672H374.5L374.5 813.5H0.5L0.5 2.13672Z" stroke="white"/>
</mask>
<g mask="url(#mask35_1_977)">
<path d="M283.022 103.784C285.309 103.734 287.592 103.519 289.828 102.934C292.008 102.363 294.6 100.702 292.239 97.4684C288.822 92.7881 284.315 89.9979 279.845 88.6115C273.475 86.6347 268.951 85.8018 263.667 85.7065C261.74 85.6719 259.744 85.8083 258.017 87.0431C256.291 88.2779 254.899 90.8785 255.081 93.6492C255.449 99.2264 260.094 101.355 263.315 102.07C267.774 103.06 272.285 103.51 276.793 103.667C278.853 103.74 280.94 103.83 283.022 103.784Z" stroke="white" stroke-opacity="0.2" stroke-width="2" stroke-miterlimit="10"/>
</g>
<mask id="mask36_1_977" style="mask-type:luminance" maskUnits="userSpaceOnUse" x="0" y="1" width="375" height="813">
<path d="M0 1.6366L0 814H375L375 1.6366H0Z" fill="white"/>
<path d="M0.5 2.13672H374.5L374.5 813.5H0.5L0.5 2.13672Z" stroke="white"/>
</mask>
<g mask="url(#mask36_1_977)">
<path d="M364.213 434.931C361.921 427.22 359.745 419.404 358.294 411.277C357.742 408.184 357.292 405.021 357.339 401.829C357.363 400.176 357.588 398.347 358.493 397.338C359.691 396.002 361.418 396.74 362.8 397.627C367.803 400.839 372.36 405.303 377.001 409.496C380.015 412.218 383.19 414.993 385.067 419.353C386.461 422.588 387.011 426.421 387.407 430.189C388.314 438.791 388.552 447.508 388.711 456.207C388.858 464.221 388.939 472.239 388.955 480.255C388.961 483.207 390.026 498.074 386.263 496.987C383.198 496.101 380.582 484.755 379.411 481.39C376.921 474.233 374.461 467.054 372.067 459.828C369.343 451.6 366.705 443.311 364.213 434.931Z" stroke="white" stroke-opacity="0.2" stroke-width="2" stroke-miterlimit="10"/>
</g>
<mask id="mask37_1_977" style="mask-type:luminance" maskUnits="userSpaceOnUse" x="0" y="1" width="375" height="813">
<path d="M0 1.6366L0 814H375L375 1.6366H0Z" fill="white"/>
<path d="M0.5 2.13672H374.5L374.5 813.5H0.5L0.5 2.13672Z" stroke="white"/>
</mask>
<g mask="url(#mask37_1_977)">
<path d="M103.45 -4.60771C99.0593 -13.7354 91.9718 -19.514 84.6375 -22.8783C77.3033 -26.2426 69.5978 -27.472 62.0145 -29.3621C51.894 -31.8847 41.8628 -35.6162 31.6013 -36.2141C21.3398 -36.8109 10.5398 -33.9167 2.55454 -24.5886C-6.54971 -13.9531 -10.5975 3.17038 -13.302 19.6256C-20.2957 62.1902 -21.1672 106.253 -19.7385 149.78C-19.3747 160.863 -18.861 171.934 -18.2617 182.994C-17.7382 192.657 -18.2865 204.646 -16.2135 213.891C-12.882 228.749 5.01829 230.265 13.7018 228.719C23.4248 226.99 32.6573 221.768 42.0998 217.999C54.999 212.851 68.4128 210.395 81.7935 210.731C89.439 210.923 97.122 212.018 104.708 210.636C107.474 210.132 110.519 209.004 111.986 205.581C114.413 199.914 110.942 193.01 108.026 187.846C98.709 171.344 93.3075 150.651 91.3808 129.542C89.454 108.431 90.8813 86.8861 94.1738 66.1308C96.2715 52.9098 99.1343 39.8221 99.6488 26.2794C100.058 15.5042 98.76 4.13011 94.8683 -4.90012" stroke="white" stroke-opacity="0.2" stroke-miterlimit="10"/>
</g>
<mask id="mask38_1_977" style="mask-type:luminance" maskUnits="userSpaceOnUse" x="0" y="1" width="375" height="813">
<path d="M0 1.6366L0 814H375L375 1.6366H0Z" fill="white"/>
<path d="M0.5 2.13672H374.5L374.5 813.5H0.5L0.5 2.13672Z" stroke="white"/>
</mask>
<g mask="url(#mask38_1_977)">
<path d="M-16.0785 218.929C-15.843 222.544 -15.6045 226.158 -15.3668 229.766C-14.7705 238.798 -14.4285 240.829 -8.17503 242.706C-2.67003 244.358 2.96022 244.988 8.57623 244.969C19.6897 244.931 30.7147 242.334 41.6377 239.622C71.7547 232.143 101.949 224.009 132.5 223.065C135.821 222.962 140.429 220.755 139.633 216.097C139.364 214.522 138.472 213.355 137.624 212.291C130.885 203.85 123.969 195.485 118.694 185.095C108.04 164.111 105.115 136.869 105.444 110.852C105.773 84.8344 109.012 59.0262 109.272 33.0078C109.402 19.945 108.609 6.12294 103.448 -4.60676" stroke="white" stroke-opacity="0.2" stroke-width="2" stroke-miterlimit="10"/>
</g>
<mask id="mask39_1_977" style="mask-type:luminance" maskUnits="userSpaceOnUse" x="0" y="1" width="375" height="813">
<path d="M0 1.6366L0 814H375L375 1.6366H0Z" fill="white"/>
<path d="M0.5 2.13672H374.5L374.5 813.5H0.5L0.5 2.13672Z" stroke="white"/>
</mask>
<g mask="url(#mask39_1_977)">
<path d="M10.2915 208.121C19.08 206.808 27.4507 202.226 36.0225 199.132C49.101 194.409 62.7757 193.15 76.1632 195.435C78.8962 195.902 81.6697 196.514 84.3825 195.846C87.0952 195.177 89.7997 192.959 90.8572 189.289C92.0985 184.983 90.8047 180.109 89.5087 175.837C86.7442 166.726 83.904 157.609 82.1175 148.004C74.67 107.966 86.2725 65.497 83.3407 24.2571C82.5795 13.5523 80.4382 2.08288 74.4555 -4.33046C70.7047 -8.3522 65.9572 -9.80471 61.353 -10.9474C43.3567 -15.4154 24.825 -16.7163 6.85798 -12.0068C2.79598 -10.9421 -1.33652 -9.50582 -4.73852 -6.12747C-12.1815 1.26504 -14.1983 15.632 -15.3525 28.5703C-18.3818 62.5292 -19.668 96.7557 -20.952 130.944C-21.4898 145.269 -22.0275 159.642 -21.276 173.946C-19.9845 198.52 -6.11477 210.572 10.2915 208.121Z" stroke="white" stroke-opacity="0.2" stroke-miterlimit="10"/>
</g>
<mask id="mask40_1_977" style="mask-type:luminance" maskUnits="userSpaceOnUse" x="0" y="1" width="375" height="813">
<path d="M0 1.6366L0 814H375L375 1.6366H0Z" fill="white"/>
<path d="M0.5 2.13672H374.5L374.5 813.5H0.5L0.5 2.13672Z" stroke="white"/>
</mask>
<g mask="url(#mask40_1_977)">
<path d="M47.9287 -6.4956C45.0532 -7.81271 42.0832 -8.77561 39.1732 -9.48074C29.0955 -11.9232 18.7845 -12.3511 8.62648 -10.7459C0.736482 -9.49919 -7.77452 -6.40137 -12.5085 2.79891C-15.888 9.36606 -16.7198 17.8829 -17.37 26.0108C-20.8388 69.3802 -22.1985 113.229 -19.5735 156.722C-18.978 166.595 -17.5155 177.754 -11.0445 183.031C-9.33002 184.429 -7.51727 185.531 -5.64452 186.367" stroke="white" stroke-opacity="0.2" stroke-miterlimit="10"/>
</g>
<mask id="mask41_1_977" style="mask-type:luminance" maskUnits="userSpaceOnUse" x="0" y="1" width="375" height="813">
<path d="M0 1.6366L0 814H375L375 1.6366H0Z" fill="white"/>
<path d="M0.5 2.13672H374.5L374.5 813.5H0.5L0.5 2.13672Z" stroke="white"/>
</mask>
<g mask="url(#mask41_1_977)">
<path d="M-5.64522 186.367C-0.0262169 188.873 6.13803 188.982 11.8343 187.487C19.179 185.559 26.2403 181.654 33.63 180.129C44.0948 177.97 54.7043 180.664 65.2545 181.61C67.7655 181.835 70.5848 181.804 72.3968 179.282C74.0753 176.946 74.322 173.093 73.692 169.851C73.062 166.609 71.709 163.783 70.5195 160.887C63.4545 143.682 61.8825 122.827 62.6978 102.859C63.513 82.8914 66.5348 63.2495 67.9913 43.3585C68.7728 32.6819 69.0083 21.2947 65.439 11.8767C61.8578 2.42947 55.194 -3.16715 47.9273 -6.49567" stroke="white" stroke-opacity="0.2" stroke-miterlimit="10"/>
</g>
<mask id="mask42_1_977" style="mask-type:luminance" maskUnits="userSpaceOnUse" x="0" y="1" width="375" height="813">
<path d="M0 1.6366L0 814H375L375 1.6366H0Z" fill="white"/>
<path d="M0.5 2.13672H374.5L374.5 813.5H0.5L0.5 2.13672Z" stroke="white"/>
</mask>
<g mask="url(#mask42_1_977)">
<path d="M23.6902 -7.81497C11.9055 -8.78006 -0.666004 -7.047 -10.182 3.03822C-16.7678 10.018 -21.306 20.4889 -23.9738 31.6399C-26.6415 42.7909 -27.5595 54.6558 -27.951 66.4404C-28.4018 80.0015 -28.1175 93.5431 -27.2895 107.061C-26.5433 119.244 -27.0758 124.904 -20.31 133.881C-16.596 138.809 -11.9025 142.946 -6.8655 142.564" stroke="white" stroke-opacity="0.2" stroke-miterlimit="10"/>
</g>
<mask id="mask43_1_977" style="mask-type:luminance" maskUnits="userSpaceOnUse" x="0" y="1" width="375" height="813">
<path d="M0 1.6366L0 814H375L375 1.6366H0Z" fill="white"/>
<path d="M0.5 2.13672H374.5L374.5 813.5H0.5L0.5 2.13672Z" stroke="white"/>
</mask>
<g mask="url(#mask43_1_977)">
<path d="M23.859 -20.125C15.1268 -26.7755 3.85202 -25.7779 -4.25248 -17.637C-13.7145 -8.13233 -17.9662 8.8136 -20.844 24.932C-26.6362 57.3734 -27.9172 89.0263 -25.2292 122.194C-23.469 143.917 -16.7572 168.366 1.56377 165.694C7.23977 164.866 12.6563 161.927 18.2453 160.271C23.8553 158.608 29.649 158.248 35.337 159.209C37.893 159.641 40.4805 160.337 43.0185 159.727C45.5565 159.117 48.1043 156.849 48.8055 153.273C49.2518 150.994 48.8963 148.567 48.5423 146.255C46.5015 132.906 44.58 119.346 44.9865 105.688C45.5543 86.6185 50.6153 68.4595 52.7663 49.6256C53.79 40.6636 54.144 31.4081 52.764 22.5468C51.384 13.6856 48.1305 5.20564 43.0148 -0.0768922C37.5015 -5.76994 30.4568 -7.26258 23.6903 -7.81715" stroke="white" stroke-opacity="0.2" stroke-width="2" stroke-miterlimit="10"/>
</g>
<mask id="mask44_1_977" style="mask-type:luminance" maskUnits="userSpaceOnUse" x="0" y="1" width="375" height="813">
<path d="M0 1.6366L0 814H375L375 1.6366H0Z" fill="white"/>
<path d="M0.5 2.13672H374.5L374.5 813.5H0.5L0.5 2.13672Z" stroke="white"/>
</mask>
<g mask="url(#mask44_1_977)">
<path d="M-6.86547 142.563C-0.92622 142.114 4.25628 135.505 10.2023 135.673C14.961 135.808 19.854 140.271 24.1943 137.451C28.674 134.539 29.4465 125.966 29.4615 118.871C29.511 94.9913 28.2428 70.6312 32.7188 47.6435C34.8413 36.7415 38.2568 26.1083 38.3153 14.7839C38.3895 0.526411 32.5913 -13.4733 23.859 -20.1239" stroke="white" stroke-opacity="0.2" stroke-miterlimit="10"/>
</g>
<mask id="mask45_1_977" style="mask-type:luminance" maskUnits="userSpaceOnUse" x="0" y="1" width="375" height="813">
<path d="M0 1.6366L0 814H375L375 1.6366H0Z" fill="white"/>
<path d="M0.5 2.13672H374.5L374.5 813.5H0.5L0.5 2.13672Z" stroke="white"/>
</mask>
<g mask="url(#mask45_1_977)">
<path d="M12.303 107.456C15.0742 104.889 15.81 99.5805 16.0905 94.8439C16.8675 81.7259 16.083 68.4356 17.4705 55.4237C18.8865 42.1454 22.5405 29.4021 23.037 15.9862C23.3317 8.00984 22.3837 -0.397599 19.041 -6.76219C15.8062 -12.9199 10.4857 -16.5647 5.13449 -16.6828C-0.216755 -16.8008 -5.51026 -13.5048 -9.32701 -8.08685C-13.2465 -2.5227 -15.5633 4.93482 -17.5725 12.323C-21.393 26.3747 -24.4245 40.8748 -26.6273 55.6316C-28.6928 69.4689 -31.9613 96.9257 -21.4148 106.135C-16.0388 110.829 -11.1728 106.234 -5.69926 105.198C0.0314934 104.115 7.03274 112.338 12.303 107.456Z" stroke="white" stroke-opacity="0.2" stroke-miterlimit="10"/>
</g>
<mask id="mask46_1_977" style="mask-type:luminance" maskUnits="userSpaceOnUse" x="0" y="1" width="375" height="813">
<path d="M0 1.6366L0 814H375L375 1.6366H0Z" fill="white"/>
<path d="M0.5 2.13672H374.5L374.5 813.5H0.5L0.5 2.13672Z" stroke="white"/>
</mask>
<g mask="url(#mask46_1_977)">
<path d="M0.0285055 73.3618C4.72276 59.7629 7.80451 45.006 9.10051 29.9264C10.098 18.3193 9.91501 5.84142 5.68576 -4.13331C4.21501 -7.60265 2.21926 -10.7362 -0.341994 -12.427C-4.39424 -15.1034 -9.34125 -13.7095 -13.026 -10.0906C-16.7107 -6.47292 -19.2915 -0.927154 -21.234 4.86337C-27.327 23.0224 -27.4305 44.3301 -22.515 63.0643C-19.3477 75.1339 -5.82974 90.3337 0.0285055 73.3618Z" stroke="white" stroke-opacity="0.2" stroke-miterlimit="10"/>
</g>
<mask id="mask47_1_977" style="mask-type:luminance" maskUnits="userSpaceOnUse" x="0" y="1" width="375" height="813">
<path d="M0 1.6366L0 814H375L375 1.6366H0Z" fill="white"/>
<path d="M0.5 2.13672H374.5L374.5 813.5H0.5L0.5 2.13672Z" stroke="white"/>
</mask>
<g mask="url(#mask47_1_977)">
<path d="M371.117 424.409C370.979 423.803 370.846 423.173 370.898 422.54C371.002 421.301 371.825 420.387 372.676 420.173C373.528 419.958 374.397 420.298 375.215 420.701C379.966 423.041 384.19 427.758 386.695 434.039C388.957 439.709 391.975 457.715 383.758 451.94C377.32 447.417 373.196 433.529 371.117 424.409Z" stroke="white" stroke-opacity="0.2" stroke-miterlimit="10"/>
</g>
<mask id="mask48_1_977" style="mask-type:luminance" maskUnits="userSpaceOnUse" x="0" y="1" width="375" height="813">
<path d="M0 1.6366L0 814H375L375 1.6366H0Z" fill="white"/>
<path d="M0.5 2.13672H374.5L374.5 813.5H0.5L0.5 2.13672Z" stroke="white"/>
</mask>
<g mask="url(#mask48_1_977)">
<path d="M233.146 645.402C238.135 645.279 243.216 645.135 247.952 642.865C250.792 641.505 253.748 638.851 254.304 634.605C254.652 631.953 253.974 629.261 253.238 626.778C249.424 613.902 243.788 602.331 239.463 589.796C229.541 561.044 226.835 528.138 227.145 496.016C227.455 463.895 230.615 431.974 231.747 399.891C231.881 396.106 231.906 391.947 230.255 389.001C228.271 385.458 224.428 385.09 221.59 387.081C218.752 389.073 216.743 392.877 215.083 396.752C209.917 408.805 207.123 422.608 204.335 436.198C195.492 479.31 185.769 523.229 166.664 558.732C161.503 568.324 155.664 577.284 151.657 587.966C148.579 596.174 145.499 608.593 147.808 617.975C149.5 624.85 154.861 627.885 159.095 630.781C173.769 640.816 190.047 644.238 206.13 645.245C215.131 645.809 224.143 645.624 233.146 645.402Z" stroke="white" stroke-opacity="0.2" stroke-width="2" stroke-miterlimit="10"/>
</g>
<mask id="mask49_1_977" style="mask-type:luminance" maskUnits="userSpaceOnUse" x="0" y="1" width="375" height="813">
<path d="M0 1.6366L0 814H375L375 1.6366H0Z" fill="white"/>
<path d="M0.5 2.13672H374.5L374.5 813.5H0.5L0.5 2.13672Z" stroke="white"/>
</mask>
<g mask="url(#mask49_1_977)">
<path d="M214.589 624.376C217.22 624.348 220.031 624.071 222.131 621.782C225.972 617.595 225.543 609.075 223.978 602.503C221.335 591.405 216.587 581.414 214.723 569.991C211.772 551.913 216.131 531.106 209.178 515.48C208.436 513.812 207.442 512.131 206.084 511.844C204.507 511.512 203.079 513.169 202.009 514.874C195.506 525.234 194.186 540.084 191.225 553.397C188.36 566.271 183.715 578.314 177.642 588.606C171.491 599.03 168.611 609.791 179.006 614.89C190.632 620.591 202.233 624.509 214.589 624.376Z" stroke="white" stroke-opacity="0.2" stroke-miterlimit="10"/>
</g>
<mask id="mask50_1_977" style="mask-type:luminance" maskUnits="userSpaceOnUse" x="0" y="1" width="375" height="813">
<path d="M0 1.6366L0 814H375L375 1.6366H0Z" fill="white"/>
<path d="M0.5 2.13672H374.5L374.5 813.5H0.5L0.5 2.13672Z" stroke="white"/>
</mask>
<g mask="url(#mask50_1_977)">
<path d="M346.649 769.853C345.84 767.545 345.509 764.957 345.291 762.411C345.098 760.148 344.611 757.332 345.141 755.126C345.467 753.77 346.358 752.589 347.348 752.713C347.976 752.792 348.519 753.36 349.004 753.94C352.307 757.894 354.683 764.586 352.982 770.273C352.568 771.661 351.887 772.955 350.926 773.556C349.966 774.157 348.839 773.719 348.082 772.676C347.476 771.841 347.012 770.886 346.649 769.853Z" stroke="white" stroke-opacity="0.2" stroke-width="2" stroke-miterlimit="10"/>
</g>
<mask id="mask51_1_977" style="mask-type:luminance" maskUnits="userSpaceOnUse" x="0" y="1" width="375" height="813">
<path d="M0 1.6366L0 814H375L375 1.6366H0Z" fill="white"/>
<path d="M0.5 2.13672H374.5L374.5 813.5H0.5L0.5 2.13672Z" stroke="white"/>
</mask>
<g mask="url(#mask51_1_977)">
<path d="M33.2685 811.461C30.486 799.926 25.4362 789.699 22.9657 778.016C18.5595 757.181 22.812 734.172 18.768 713.186C18.3292 710.908 17.4825 708.281 15.8557 708.016C14.9295 707.865 14.0415 708.576 13.305 709.4C9.14699 714.053 7.95074 722.219 6.86249 729.652C5.16074 741.282 3.04349 752.785 0.52349 764.1C-2.96401 779.758 -7.20526 797.007 -2.60326 812.053C0.83624 823.298 10.2135 832.052 18.543 833.907C28.1482 836.045 36.612 825.323 33.2685 811.461Z" stroke="white" stroke-opacity="0.2" stroke-width="2" stroke-miterlimit="10"/>
</g>
<mask id="mask52_1_977" style="mask-type:luminance" maskUnits="userSpaceOnUse" x="0" y="1" width="375" height="813">
<path d="M0 1.6366L0 814H375L375 1.6366H0Z" fill="white"/>
<path d="M0.5 2.13672H374.5L374.5 813.5H0.5L0.5 2.13672Z" stroke="white"/>
</mask>
<g mask="url(#mask52_1_977)">
<path d="M12.8295 784.881C12.3 783.475 11.583 782.135 10.578 781.46C9.27905 780.587 7.69805 780.998 6.47255 782.069C5.24705 783.141 4.3208 784.793 3.50105 786.489C-0.235452 794.223 -2.2657 804.148 -0.552702 813.247C0.615798 819.454 3.8273 825.085 7.9418 827.648C11.1338 829.635 18.3398 830.623 19.5751 824.22C20.4848 819.504 16.4445 812.058 15.6615 807.532C14.382 800.129 15.4261 791.775 12.8295 784.881Z" stroke="white" stroke-opacity="0.2" stroke-miterlimit="10"/>
</g>
<mask id="mask53_1_977" style="mask-type:luminance" maskUnits="userSpaceOnUse" x="0" y="1" width="375" height="813">
<path d="M0 1.6366L0 814H375L375 1.6366H0Z" fill="white"/>
<path d="M0.5 2.13672H374.5L374.5 813.5H0.5L0.5 2.13672Z" stroke="white"/>
</mask>
<g mask="url(#mask53_1_977)">
<path d="M27.0555 402.001C28.8255 399.314 30.6187 396.581 31.803 393.29C32.0895 392.493 32.3392 391.531 32.0647 390.726C31.5952 389.348 30.1822 389.697 29.1997 390.286C14.457 399.134 2.01525 414.765 -7.93876 432.79C-10.581 437.577 -13.2053 443.429 -12.2228 449.384C-9.82276 463.927 3.39525 437.914 5.86125 434.17C12.9262 423.447 19.9905 412.724 27.0555 402.001Z" stroke="white" stroke-opacity="0.2" stroke-width="2" stroke-miterlimit="10"/>
</g>
<mask id="mask54_1_977" style="mask-type:luminance" maskUnits="userSpaceOnUse" x="0" y="1" width="375" height="813">
<path d="M0 1.6366L0 814H375L375 1.6366H0Z" fill="white"/>
<path d="M0.5 2.13672H374.5L374.5 813.5H0.5L0.5 2.13672Z" stroke="white"/>
</mask>
<g mask="url(#mask54_1_977)">
<path d="M308.42 847.763C306.777 823.571 302.844 791.733 298.988 777.242C281.192 710.361 218.699 729.11 180.401 733.547C146.378 737.489 121.244 719.362 101.186 687.34C79.995 653.509 79.2 585.035 111.759 494.669C123.207 462.894 133.797 437.354 142.472 407.23C151.404 376.215 163.411 331.145 142.293 304.596C121.892 278.947 89.688 286.261 57.7823 292.06C33.903 296.4 8.02051 305.617 -16.4347 306.515" stroke="white" stroke-opacity="0.2" stroke-width="2" stroke-miterlimit="10" stroke-dasharray="12.06 12.06"/>
</g>
<mask id="mask55_1_977" style="mask-type:luminance" maskUnits="userSpaceOnUse" x="0" y="1" width="375" height="813">
<path d="M0 1.6366L0 814H375L375 1.6366H0Z" fill="white"/>
<path d="M0.5 2.13672H374.5L374.5 813.5H0.5L0.5 2.13672Z" stroke="white"/>
</mask>
<g mask="url(#mask55_1_977)">
<path d="M294.606 757.216C297.352 757.216 299.578 760.431 299.578 764.397C299.578 768.362 297.353 771.578 294.606 771.578C291.86 771.578 289.634 768.364 289.634 764.397C289.634 760.431 291.86 757.216 294.606 757.216Z" fill="white"/>
<path d="M290.134 764.397C290.134 762.503 290.666 760.81 291.501 759.604C292.337 758.396 293.444 757.716 294.606 757.716C295.769 757.716 296.874 758.396 297.711 759.604C298.546 760.81 299.079 762.502 299.079 764.397C299.079 766.291 298.546 767.984 297.711 769.19C296.874 770.398 295.769 771.078 294.606 771.078C293.444 771.078 292.337 770.399 291.501 769.191C290.666 767.985 290.134 766.291 290.134 764.397Z" stroke="white" stroke-opacity="0.2"/>
</g>
<mask id="mask56_1_977" style="mask-type:luminance" maskUnits="userSpaceOnUse" x="0" y="1" width="375" height="813">
<path d="M0 1.6366L0 814H375L375 1.6366H0Z" fill="white"/>
<path d="M0.5 2.13672H374.5L374.5 813.5H0.5L0.5 2.13672Z" stroke="white"/>
</mask>
<g mask="url(#mask56_1_977)">
<path d="M154.436 724.767C157.182 724.767 159.409 727.981 159.409 731.948C159.409 735.913 157.183 739.129 154.436 739.129C151.691 739.129 149.464 735.914 149.464 731.948C149.464 727.981 151.69 724.767 154.436 724.767Z" fill="white"/>
<path d="M149.964 731.948C149.964 730.053 150.496 728.36 151.331 727.155C152.167 725.947 153.274 725.267 154.436 725.267C155.599 725.267 156.705 725.947 157.541 727.155C158.376 728.36 158.909 730.053 158.909 731.948C158.909 733.841 158.376 735.535 157.541 736.741C156.705 737.949 155.599 738.629 154.436 738.629C153.274 738.629 152.167 737.949 151.331 736.742C150.496 735.536 149.964 733.842 149.964 731.948Z" stroke="white" stroke-opacity="0.2"/>
</g>
<mask id="mask57_1_977" style="mask-type:luminance" maskUnits="userSpaceOnUse" x="0" y="1" width="375" height="813">
<path d="M0 1.6366L0 814H375L375 1.6366H0Z" fill="white"/>
<path d="M0.5 2.13672H374.5L374.5 813.5H0.5L0.5 2.13672Z" stroke="white"/>
</mask>
<g mask="url(#mask57_1_977)">
<path d="M98.5208 527.864C101.267 527.864 103.493 531.079 103.493 535.045C103.493 539.012 101.267 542.227 98.5208 542.227C95.7743 542.227 93.5483 539.012 93.5483 535.045C93.5491 531.079 95.7751 527.864 98.5208 527.864Z" fill="white"/>
<path d="M94.0483 535.045C94.0487 533.151 94.5815 531.458 95.4165 530.252C96.2528 529.044 97.3585 528.364 98.521 528.364C99.6834 528.364 100.789 529.044 101.625 530.252C102.46 531.458 102.994 533.151 102.994 535.045C102.994 536.939 102.46 538.633 101.625 539.839C100.789 541.046 99.6837 541.726 98.521 541.727C97.3581 541.727 96.2518 541.047 95.4155 539.839C94.6328 538.708 94.1158 537.15 94.0542 535.398L94.0483 535.045Z" stroke="white" stroke-opacity="0.2"/>
</g>
<mask id="mask58_1_977" style="mask-type:luminance" maskUnits="userSpaceOnUse" x="0" y="1" width="375" height="813">
<path d="M0 1.6366L0 814H375L375 1.6366H0Z" fill="white"/>
<path d="M0.5 2.13672H374.5L374.5 813.5H0.5L0.5 2.13672Z" stroke="white"/>
</mask>
<g mask="url(#mask58_1_977)">
<path d="M148.819 306.993C151.564 306.993 153.791 310.208 153.791 314.174C153.791 318.14 151.565 321.356 148.819 321.356C146.073 321.356 143.846 318.141 143.846 314.174C143.847 310.208 146.073 306.993 148.819 306.993Z" fill="white"/>
<path d="M144.346 314.174C144.347 312.28 144.879 310.587 145.714 309.381C146.551 308.173 147.656 307.493 148.819 307.493C149.981 307.493 151.087 308.173 151.923 309.381C152.758 310.587 153.291 312.28 153.292 314.174C153.292 316.068 152.758 317.761 151.923 318.967C151.087 320.175 149.982 320.856 148.819 320.856C147.656 320.856 146.55 320.176 145.713 318.968C144.931 317.837 144.414 316.279 144.352 314.527L144.346 314.174Z" stroke="white" stroke-opacity="0.2"/>
</g>
<mask id="mask59_1_977" style="mask-type:luminance" maskUnits="userSpaceOnUse" x="0" y="1" width="375" height="813">
<path d="M0 1.6366L0 814H375L375 1.6366H0Z" fill="white"/>
<path d="M0.5 2.13672H374.5L374.5 813.5H0.5L0.5 2.13672Z" stroke="white"/>
</mask>
<g mask="url(#mask59_1_977)">
<path d="M345.862 608.984C348.608 608.984 350.834 612.199 350.834 616.166C350.834 620.131 348.608 623.347 345.862 623.347C343.116 623.347 340.889 620.132 340.889 616.166C340.889 612.2 343.115 608.984 345.862 608.984Z" fill="white"/>
<path d="M341.389 616.165C341.389 614.272 341.922 612.578 342.757 611.372C343.593 610.164 344.699 609.485 345.862 609.485C347.024 609.485 348.13 610.165 348.967 611.372C349.802 612.578 350.335 614.271 350.335 616.165C350.335 618.059 349.801 619.752 348.967 620.958C348.13 622.166 347.025 622.847 345.862 622.847C344.7 622.847 343.593 622.167 342.757 620.959C341.922 619.753 341.389 618.06 341.389 616.165Z" stroke="white" stroke-opacity="0.2"/>
</g>
<mask id="mask60_1_977" style="mask-type:luminance" maskUnits="userSpaceOnUse" x="0" y="1" width="375" height="813">
<path d="M0 1.6366L0 814H375L375 1.6366H0Z" fill="white"/>
<path d="M0.5 2.13672H374.5L374.5 813.5H0.5L0.5 2.13672Z" stroke="white"/>
</mask>
<g mask="url(#mask60_1_977)">
<path d="M299.059 237.865C301.805 237.865 304.031 241.08 304.031 245.047C304.031 249.013 301.805 252.228 299.059 252.228C296.313 252.228 294.086 249.013 294.086 245.047C294.086 241.08 296.312 237.865 299.059 237.865Z" fill="white"/>
<path d="M294.586 245.046C294.586 243.152 295.119 241.459 295.954 240.253C296.79 239.046 297.896 238.366 299.059 238.366C300.221 238.366 301.327 239.046 302.164 240.253C302.999 241.459 303.532 243.152 303.532 245.046C303.532 246.941 302.998 248.634 302.164 249.84C301.327 251.048 300.222 251.728 299.059 251.728C297.897 251.728 296.79 251.048 295.954 249.84C295.119 248.634 294.586 246.941 294.586 245.046Z" stroke="white" stroke-opacity="0.2"/>
</g>
<mask id="mask61_1_977" style="mask-type:luminance" maskUnits="userSpaceOnUse" x="0" y="1" width="375" height="813">
<path d="M0 1.6366L0 814H375L375 1.6366H0Z" fill="white"/>
<path d="M0.5 2.13672H374.5L374.5 813.5H0.5L0.5 2.13672Z" stroke="white"/>
</mask>
<g mask="url(#mask61_1_977)">
<path d="M193.09 -5.54485C195.836 -5.54485 198.062 -2.33005 198.062 1.63645C198.062 5.60295 195.836 8.81775 193.09 8.81775C190.344 8.81775 188.117 5.60295 188.117 1.63645C188.117 -2.33005 190.344 -5.54485 193.09 -5.54485Z" fill="white"/>
<path d="M188.617 1.63611C188.617 -0.25798 189.15 -1.95105 189.984 -3.15686C190.821 -4.36473 191.927 -5.04456 193.09 -5.04456C194.252 -5.0445 195.358 -4.36466 196.194 -3.15686C197.029 -1.95103 197.563 -0.258136 197.563 1.63611C197.563 3.53053 197.029 5.22417 196.194 6.43005C195.358 7.63762 194.253 8.31769 193.09 8.31775C191.927 8.31775 190.821 7.63792 189.984 6.43005C189.149 5.22416 188.617 3.53044 188.617 1.63611Z" stroke="white" stroke-opacity="0.2"/>
</g>
<mask id="mask62_1_977" style="mask-type:luminance" maskUnits="userSpaceOnUse" x="0" y="1" width="375" height="813">
<path d="M0 1.6366L0 814H375L375 1.6366H0Z" fill="white"/>
<path d="M0.5 2.13672H374.5L374.5 813.5H0.5L0.5 2.13672Z" stroke="white"/>
</mask>
<g mask="url(#mask62_1_977)">
<path d="M4.97251 304.956C4.97251 300.99 2.74625 297.774 1.23978e-05 297.774C-2.74622 297.774 -4.97249 300.99 -4.97249 304.956C-4.97249 308.922 -2.74622 312.137 1.23978e-05 312.137C2.74625 312.137 4.97251 308.922 4.97251 304.956Z" fill="white"/>
<path d="M-4.47249 304.955C-4.47242 303.061 -3.94022 301.368 -3.1053 300.162C-2.26892 298.955 -1.16253 298.275 0.000167847 298.275C1.16276 298.275 2.26833 298.955 3.10466 300.162C3.93964 301.368 4.47276 303.061 4.47282 304.955C4.47282 306.85 3.93969 308.543 3.10466 309.749C2.26835 310.957 1.16269 311.637 0.000167847 311.637C-1.16251 311.637 -2.26893 310.957 -3.1053 309.749C-3.94033 308.543 -4.47249 306.85 -4.47249 304.955Z" stroke="white" stroke-opacity="0.2"/>
</g>
<mask id="mask63_1_977" style="mask-type:luminance" maskUnits="userSpaceOnUse" x="0" y="1" width="375" height="813">
<path d="M0 1.6366L0 814H375L375 1.6366H0Z" fill="white"/>
<path d="M0.5 2.13672H374.5L374.5 813.5H0.5L0.5 2.13672Z" stroke="white"/>
</mask>
<g mask="url(#mask63_1_977)">
<path d="M392.153 703.691C368.2 661.034 344.453 617.804 325.571 570.133C306.689 522.46 292.724 469.853 289.844 415.09C286.739 356.062 296.54 297.138 296.37 237.941C296.308 216.226 293.963 191.886 282.079 178.585C277.733 173.721 272.495 170.85 267.282 168.326C252.805 161.315 237.815 156.418 223.739 147.867C209.664 139.317 196.22 126.526 188.34 107.637C178.868 84.932 178.721 55.8006 184.956 30.8686C191.192 5.93667 203.189 -15.2281 216.731 -33.1218" stroke="white" stroke-opacity="0.2" stroke-width="2" stroke-miterlimit="10" stroke-dasharray="12 12"/>
</g>
<mask id="mask64_1_977" style="mask-type:luminance" maskUnits="userSpaceOnUse" x="0" y="1" width="375" height="813">
<path d="M0 1.6366L0 814H375L375 1.6366H0Z" fill="white"/>
<path d="M0.5 2.13672H374.5L374.5 813.5H0.5L0.5 2.13672Z" stroke="white"/>
</mask>
<g mask="url(#mask64_1_977)">
<path d="M196.728 585.817H201.86" stroke="white" stroke-opacity="0.2" stroke-miterlimit="10"/>
<path d="M199.294 582.112V589.522" stroke="white" stroke-opacity="0.2" stroke-miterlimit="10"/>
</g>
<mask id="mask65_1_977" style="mask-type:luminance" maskUnits="userSpaceOnUse" x="0" y="1" width="375" height="813">
<path d="M0 1.6366L0 814H375L375 1.6366H0Z" fill="white"/>
<path d="M0.5 2.13672H374.5L374.5 813.5H0.5L0.5 2.13672Z" stroke="white"/>
</mask>
<g mask="url(#mask65_1_977)">
<path d="M94.9569 478.282H100.379" stroke="white" stroke-opacity="0.2" stroke-miterlimit="10"/>
<path d="M97.668 474.366V482.197" stroke="white" stroke-opacity="0.2" stroke-miterlimit="10"/>
</g>
<mask id="mask66_1_977" style="mask-type:luminance" maskUnits="userSpaceOnUse" x="0" y="1" width="375" height="813">
<path d="M0 1.6366L0 814H375L375 1.6366H0Z" fill="white"/>
<path d="M0.5 2.13672H374.5L374.5 813.5H0.5L0.5 2.13672Z" stroke="white"/>
</mask>
<g mask="url(#mask66_1_977)">
<path d="M268.798 95.5416H274.276" stroke="white" stroke-opacity="0.2" stroke-miterlimit="10"/>
<path d="M271.537 91.5858V99.4972" stroke="white" stroke-opacity="0.2" stroke-miterlimit="10"/>
</g>
<g opacity="0.5">
<path d="M7.62939e-06 735.944H2.25001" stroke="white" stroke-opacity="0.2" stroke-miterlimit="10"/>
<path d="M6.71404 735.944H370.518" stroke="white" stroke-opacity="0.2" stroke-miterlimit="10" stroke-dasharray="5.95 5.95"/>
<path d="M372.75 735.944H375" stroke="white" stroke-opacity="0.2" stroke-miterlimit="10"/>
<path d="M7.62939e-06 642.194H2.25001" stroke="white" stroke-opacity="0.2" stroke-miterlimit="10"/>
<path d="M6.71404 642.194H370.518" stroke="white" stroke-opacity="0.2" stroke-miterlimit="10" stroke-dasharray="5.95 5.95"/>
<path d="M372.75 642.194H375" stroke="white" stroke-opacity="0.2" stroke-miterlimit="10"/>
<path d="M7.62939e-06 548.444H2.25001" stroke="white" stroke-opacity="0.2" stroke-miterlimit="10"/>
<path d="M6.71404 548.444H370.518" stroke="white" stroke-opacity="0.2" stroke-miterlimit="10" stroke-dasharray="5.95 5.95"/>
<path d="M372.75 548.444H375" stroke="white" stroke-opacity="0.2" stroke-miterlimit="10"/>
<path d="M7.62939e-06 454.694H2.25001" stroke="white" stroke-opacity="0.2" stroke-miterlimit="10"/>
<path d="M6.71404 454.694L370.518 454.694" stroke="white" stroke-opacity="0.2" stroke-miterlimit="10" stroke-dasharray="5.95 5.95"/>
<path d="M372.75 454.694H375" stroke="white" stroke-opacity="0.2" stroke-miterlimit="10"/>
<path d="M0 360.943H2.25" stroke="white" stroke-opacity="0.2" stroke-miterlimit="10"/>
<path d="M6.71403 360.943L370.518 360.943" stroke="white" stroke-opacity="0.2" stroke-miterlimit="10" stroke-dasharray="5.95 5.95"/>
<path d="M372.75 360.943H375" stroke="white" stroke-opacity="0.2" stroke-miterlimit="10"/>
<path d="M7.62939e-06 267.193H2.25001" stroke="white" stroke-opacity="0.2" stroke-miterlimit="10"/>
<path d="M6.71404 267.193L370.518 267.193" stroke="white" stroke-opacity="0.2" stroke-miterlimit="10" stroke-dasharray="5.95 5.95"/>
<path d="M372.75 267.193H375" stroke="white" stroke-opacity="0.2" stroke-miterlimit="10"/>
<path d="M7.62939e-06 173.443H2.25001" stroke="white" stroke-opacity="0.2" stroke-miterlimit="10"/>
<path d="M6.71404 173.443L370.518 173.443" stroke="white" stroke-opacity="0.2" stroke-miterlimit="10" stroke-dasharray="5.95 5.95"/>
<path d="M372.75 173.443H375" stroke="white" stroke-opacity="0.2" stroke-miterlimit="10"/>
<path d="M7.62939e-06 79.6929H2.25001" stroke="white" stroke-opacity="0.2" stroke-miterlimit="10"/>
<path d="M6.71404 79.6929L370.518 79.6929" stroke="white" stroke-opacity="0.2" stroke-miterlimit="10" stroke-dasharray="5.95 5.95"/>
<path d="M372.75 79.6929H375" stroke="white" stroke-opacity="0.2" stroke-miterlimit="10"/>
<path d="M25.2127 -6.40154e-05V3.24939" stroke="white" stroke-opacity="0.2" stroke-miterlimit="10"/>
<path d="M25.2127 9.69628L25.2127 805.89" stroke="white" stroke-opacity="0.2" stroke-miterlimit="10" stroke-dasharray="5.95 5.95"/>
<path d="M25.2127 809.114V812.363" stroke="white" stroke-opacity="0.2" stroke-miterlimit="10"/>
<path d="M90.1282 -6.40154e-05V3.24939" stroke="white" stroke-opacity="0.2" stroke-miterlimit="10"/>
<path d="M90.1282 9.69628L90.1282 805.89" stroke="white" stroke-opacity="0.2" stroke-miterlimit="10" stroke-dasharray="5.95 5.95"/>
<path d="M90.1282 809.114V812.363" stroke="white" stroke-opacity="0.2" stroke-miterlimit="10"/>
<path d="M155.043 -6.40154e-05V3.24939" stroke="white" stroke-opacity="0.2" stroke-miterlimit="10"/>
<path d="M155.043 9.69628L155.043 805.89" stroke="white" stroke-opacity="0.2" stroke-miterlimit="10" stroke-dasharray="5.95 5.95"/>
<path d="M155.043 809.114V812.363" stroke="white" stroke-opacity="0.2" stroke-miterlimit="10"/>
<path d="M219.958 -6.40154e-05V3.24939" stroke="white" stroke-opacity="0.2" stroke-miterlimit="10"/>
<path d="M219.958 9.69628L219.958 805.89" stroke="white" stroke-opacity="0.2" stroke-miterlimit="10" stroke-dasharray="5.95 5.95"/>
<path d="M219.958 809.114V812.363" stroke="white" stroke-opacity="0.2" stroke-miterlimit="10"/>
<path d="M284.872 -6.40154e-05V3.24939" stroke="white" stroke-opacity="0.2" stroke-miterlimit="10"/>
<path d="M284.872 9.69628L284.872 805.89" stroke="white" stroke-opacity="0.2" stroke-miterlimit="10" stroke-dasharray="5.95 5.95"/>
<path d="M284.873 809.114V812.363" stroke="white" stroke-opacity="0.2" stroke-miterlimit="10"/>
<path d="M349.787 -6.40154e-05V3.24939" stroke="white" stroke-opacity="0.2" stroke-miterlimit="10"/>
<path d="M349.787 9.69628L349.787 805.89" stroke="white" stroke-opacity="0.2" stroke-miterlimit="10" stroke-dasharray="5.95 5.95"/>
<path d="M349.787 809.114V812.363" stroke="white" stroke-opacity="0.2" stroke-miterlimit="10"/>
</g>
</g>
<defs>
<linearGradient id="paint0_linear_1_977" x1="187.5" y1="0" x2="187.5" y2="258" gradientUnits="userSpaceOnUse">
<stop stop-color="#04341A"/>
<stop offset="1" stop-color="#32B16A"/>
</linearGradient>
<clipPath id="clip0_1_977">
<rect width="375" height="814" fill="white"/>
</clipPath>
<clipPath id="clip1_1_977">
<rect width="375" height="258" fill="white" transform="translate(0 1)"/>
</clipPath>
<clipPath id="clip2_1_977">
<rect width="812" height="375" fill="white" transform="matrix(0 -1 1 0 0 234)"/>
</clipPath>
</defs>
</svg>
